<svg xmlns="http://www.w3.org/2000/svg" xmlns:xlink="http://www.w3.org/1999/xlink" width="500" zoomAndPan="magnify" viewBox="0 0 375 374.999991" height="500" preserveAspectRatio="xMidYMid meet" version="1.0"><defs><clipPath id="f091e33c05"><path d="M 214 251 L 240 251 L 240 276.941406 L 214 276.941406 Z M 214 251 " clip-rule="nonzero"/></clipPath><clipPath id="975e4cb3ce"><path d="M 118 251 L 145 251 L 145 276.941406 L 118 276.941406 Z M 118 251 " clip-rule="nonzero"/></clipPath><clipPath id="532c0bcb14"><path d="M 173 97.691406 L 213 97.691406 L 213 122 L 173 122 Z M 173 97.691406 " clip-rule="nonzero"/></clipPath></defs><path fill="#272343" d="M 98.816406 219.492188 L 244.335938 219.492188 L 244.335938 140.152344 C 244.335938 137.132812 245.53125 134.234375 247.671875 132.101562 L 268.730469 111.117188 C 272.792969 107.066406 279.519531 107.320312 283.25 111.859375 C 286.488281 115.808594 285.796875 121.695312 282.175781 125.296875 L 263.902344 143.523438 L 263.902344 227.621094 C 263.902344 233.914062 258.789062 239.011719 252.488281 239.011719 L 99.375 239.011719 C 94.261719 239.011719 89.597656 235.335938 89.082031 230.257812 C 88.5 224.417969 93.085938 219.492188 98.816406 219.492188 " fill-opacity="1" fill-rule="nonzero"/><g clip-path="url(#f091e33c05)"><path fill="#272343" d="M 227.015625 251.199219 C 234.140625 251.199219 239.914062 256.953125 239.914062 264.054688 C 239.914062 271.144531 234.140625 276.886719 227.015625 276.886719 C 219.90625 276.886719 214.144531 271.144531 214.144531 264.054688 C 214.144531 256.953125 219.90625 251.199219 227.015625 251.199219 " fill-opacity="1" fill-rule="nonzero"/></g><g clip-path="url(#975e4cb3ce)"><path fill="#272343" d="M 131.464844 251.199219 C 138.585938 251.199219 144.347656 256.953125 144.347656 264.054688 C 144.347656 271.144531 138.585938 276.886719 131.464844 276.886719 C 124.351562 276.886719 118.578125 271.144531 118.578125 264.054688 C 118.578125 256.953125 124.351562 251.199219 131.464844 251.199219 " fill-opacity="1" fill-rule="nonzero"/></g><path fill="#7d7d7d" d="M 180.136719 137.558594 C 180.136719 139.5625 178.5 141.203125 176.492188 141.203125 C 174.472656 141.203125 172.835938 139.5625 172.835938 137.558594 L 172.835938 135.128906 C 172.835938 133.128906 174.472656 131.488281 176.492188 131.488281 C 178.5 131.488281 180.136719 133.128906 180.136719 135.128906 Z M 205.707031 135.128906 C 205.707031 133.128906 207.351562 131.488281 209.359375 131.488281 C 211.367188 131.488281 213.015625 133.128906 213.015625 135.128906 L 213.015625 137.558594 C 213.015625 139.5625 211.367188 141.203125 209.359375 141.203125 C 207.351562 141.203125 205.707031 139.5625 205.707031 137.558594 Z M 179.542969 160.46875 L 182.308594 201.746094 C 182.449219 203.835938 181.351562 205.753906 179.628906 206.757812 L 227.46875 206.757812 C 230.816406 206.757812 233.414062 203.871094 233.0625 200.566406 L 225.722656 131.640625 C 225.425781 128.796875 223.011719 126.640625 220.136719 126.640625 C 203.6875 126.640625 182.097656 126.640625 165.714844 126.640625 C 162.839844 126.640625 160.425781 128.796875 160.117188 131.640625 L 157.691406 154.507812 L 173.15625 154.507812 C 176.511719 154.507812 179.324219 157.132812 179.542969 160.46875 " fill-opacity="1" fill-rule="nonzero"/><g clip-path="url(#532c0bcb14)"><path fill="#7d7d7d" d="M 211.476562 121.773438 C 205.234375 121.773438 205.957031 122.332031 205.957031 117.527344 C 205.957031 109.957031 199.417969 103.875 191.667969 104.597656 C 184.917969 105.230469 179.894531 111.148438 179.894531 117.910156 L 179.894531 120.480469 C 179.894531 121.203125 179.3125 121.773438 178.597656 121.773438 C 172.484375 121.773438 173.078125 122.277344 173.078125 118.050781 C 173.078125 106.992188 182.164062 97.5625 193.261719 97.746094 C 204.046875 97.921875 212.773438 106.730469 212.773438 117.527344 L 212.773438 120.480469 C 212.773438 121.203125 212.191406 121.773438 211.476562 121.773438 " fill-opacity="1" fill-rule="nonzero"/></g><path fill="#7d7d7d" d="M 98.828125 187.863281 L 105.398438 136.554688 C 105.652344 134.582031 107.332031 133.105469 109.328125 133.105469 C 125.078125 133.105469 136.335938 133.105469 150.832031 133.105469 C 152.917969 133.105469 154.652344 134.714844 154.785156 136.792969 L 155.96875 154.507812 C 149.472656 154.507812 151.273438 154.507812 148.714844 154.507812 C 149.023438 151.617188 149.164062 148.96875 149.230469 147.011719 C 153.238281 145.710938 152.25 139.847656 148.078125 139.847656 C 143.984375 139.847656 142.933594 145.566406 146.816406 146.980469 C 146.738281 149.375 146.554688 151.933594 146.277344 154.507812 C 140.230469 154.507812 136.589844 153.785156 134.304688 157.691406 C 133.460938 159.125 133.558594 159.515625 132.5625 167.296875 C 130.257812 161.324219 128.941406 152.558594 128.367188 146.914062 C 132.023438 145.339844 130.914062 139.847656 126.910156 139.847656 C 122.597656 139.847656 121.804688 145.996094 125.964844 147.089844 C 126.546875 152.84375 128.171875 165.164062 131.992188 171.703125 L 128.851562 196.253906 C 128.851562 196.253906 117.109375 198.507812 116.757812 198.542969 C 115.253906 198.464844 117.40625 199.363281 100.273438 190.609375 C 99.253906 190.097656 98.671875 188.992188 98.828125 187.863281 " fill-opacity="1" fill-rule="nonzero"/><path fill="#272343" d="M 153.949219 163.136719 C 157.121094 163.136719 158.085938 167.527344 155.125 168.804688 C 158.242188 199.777344 169.019531 195.183594 169.929688 168.859375 C 166.8125 167.734375 167.65625 163.136719 170.9375 163.136719 C 174.285156 163.136719 175.074219 167.84375 171.859375 168.894531 C 171.058594 192.066406 163.761719 194.230469 160.007812 191.144531 C 155.550781 187.503906 153.773438 174.703125 153.191406 168.949219 C 149.847656 168.074219 150.503906 163.136719 153.949219 163.136719 Z M 131.410156 201.683594 C 131.289062 202.578125 131.761719 203.464844 132.574219 203.882812 C 146.445312 210.960938 144.6875 210.203125 145.808594 210.214844 L 145.808594 210.25 C 145.960938 210.25 177.171875 204.265625 177.324219 204.230469 C 178.402344 204.023438 179.160156 203.050781 179.082031 201.957031 L 176.328125 160.6875 C 176.21875 159.023438 174.824219 157.734375 173.15625 157.734375 C 162.136719 157.734375 152.390625 157.734375 139.835938 157.734375 C 138.246094 157.734375 136.894531 158.914062 136.6875 160.492188 C 132.40625 193.890625 132.132812 195.992188 131.410156 201.683594 " fill-opacity="1" fill-rule="nonzero"/></svg>